<?xml version="1.0" encoding="utf-8"?>
<!-- Generator: Adobe Illustrator 16.0.3, SVG Export Plug-In . SVG Version: 6.00 Build 0)  -->
<!DOCTYPE svg PUBLIC "-//W3C//DTD SVG 1.1//EN" "http://www.w3.org/Graphics/SVG/1.1/DTD/svg11.dtd">
<svg version="1.1" id="Ebene_1" xmlns="http://www.w3.org/2000/svg" xmlns:xlink="http://www.w3.org/1999/xlink" x="0px" y="0px"
	 width="180px" height="51px" viewBox="0 0 180 51" enable-background="new 0 0 180 51" xml:space="preserve">
<rect fill="#000066" width="180" height="51"/>
<path fill="#FFFFFF" d="M166.723,45.624v-9.108h3.319V32.2h-3.319V9.164h-4.63l-15.467,22.604v4.748h15.517v9.108H166.723
	L166.723,45.624z M150.898,32.199l11.244-16.778v16.778H150.898L150.898,32.199L150.898,32.199z"/>
<path fill="#FFFFFF" d="M114.35,45.305l0.002-19.197c0-4.424,1.525-6.745,3.713-6.745c2.035,0,2.595,2.05,2.595,5.772v20.168h3.866
	l0.002-19.197c0-4.37,1.576-6.743,3.765-6.743c2.035,0,2.543,2.05,2.543,5.772v20.168h4.121l0.001-19.845
	c0-6.258-0.967-9.98-5.342-9.98c-2.34,0-4.07,1.403-5.494,4.208c-0.764-2.698-2.544-4.208-5.037-4.208
	c-2.137,0-3.867,1.457-4.884,4.1v-3.075h-3.97v28.8h4.119V45.305z"/>
<path fill="#FFFFFF" d="M80.424,45.303V28.911c0-6.096,2.646-9.171,7.072-9.171c3.408,0,5.291,1.942,5.291,5.772h4.527
	c-0.101-6.744-3-10.035-8.902-10.035c-3.562,0-6.513,2.05-8.395,5.826v-4.801h-4.07l-0.001,28.8L80.424,45.303L80.424,45.303z"/>
<path fill="#FFFFFF" d="M38.258,31.014C39.007,47.564,50,45.802,50,45.802s11.895,1.667,11.966-14.788
	c0-9.926-4.477-15.537-11.854-15.537S38.258,21.141,38.258,31.014L38.258,31.014z M42.836,30.959c0-7.391,2.646-11.275,7.275-11.275
	c4.579,0,7.275,3.831,7.275,11.275c0,7.391-2.447,10.829-7.276,10.579C45.533,41.539,42.836,38.352,42.836,30.959L42.836,30.959
	L42.836,30.959z"/>
<path fill="#FFFFFF" d="M14.151,21.518v23.783h4.478V21.518h10.175v-4.046H18.629v-1.78c0-3.345,2.035-4.801,6.36-4.801
	c1.17,0,2.442,0.108,3.815,0.216V7.014h-8.297c-4.298,0.78-6.355,3.243-6.355,7.815v2.643H6.177v4.046H14.151L14.151,21.518z"/>
</svg>
